<svg width="26" height="26" viewBox="0 0 26 26" fill="none" xmlns="http://www.w3.org/2000/svg">
<path d="M14.0833 21.6666H19.5V23.8333H6.5V21.6666H11.9167V15.1341C8.8725 14.8416 6.5 12.285 6.5 9.16496C6.5 8.82913 6.5325 8.50413 6.58667 8.17913L7.58333 2.16663H14.6683L13.3575 4.77746L12.7725 5.95829H14.9392L13.3575 9.11079L12.7725 10.2916H15.1667L14.0833 13.8125L16.9758 9.84746L17.8317 8.66663H15.3942L16.9758 5.51413L17.5608 4.33329H15.3942L16.4775 2.16663H18.4167L19.4242 8.17913C19.5 8.50413 19.5 8.82913 19.5 9.16496C19.5 12.285 17.1275 14.8416 14.0833 15.1341V21.6666Z" fill="#038CB8"/>
</svg>
