<svg width="66" height="67" viewBox="0 0 66 67" fill="none" xmlns="http://www.w3.org/2000/svg">
<path d="M33 5.58325V22.3333C33 23.814 33.5795 25.2342 34.6109 26.2813C35.6424 27.3283 37.0413 27.9166 38.5 27.9166H55V55.8332C55 57.314 54.4205 58.7342 53.3891 59.7813C52.3576 60.8283 50.9587 61.4166 49.5 61.4166H30.7725C33.6188 58.4088 35.3575 54.4975 35.6961 50.3409C36.0347 46.1843 34.9524 42.0361 32.6314 38.5946C30.3104 35.1531 26.8924 32.6283 22.9526 31.4452C19.0128 30.262 14.7918 30.4927 11 32.0985V11.1666C11 9.68579 11.5795 8.26565 12.6109 7.21857C13.6424 6.17149 15.0413 5.58325 16.5 5.58325H33ZM37.125 6.97909V22.3333C37.125 22.7034 37.2699 23.0585 37.5277 23.3203C37.7856 23.582 38.1353 23.7291 38.5 23.7291H53.625L37.125 6.97909ZM33 48.8541C33 50.8704 32.6088 52.867 31.8487 54.7299C31.0886 56.5927 29.9745 58.2853 28.57 59.7111C27.1655 61.1369 25.4981 62.2679 23.6631 63.0395C21.828 63.8111 19.8612 64.2082 17.875 64.2082C15.8888 64.2082 13.922 63.8111 12.0869 63.0395C10.2519 62.2679 8.5845 61.1369 7.18001 59.7111C5.77552 58.2853 4.66142 56.5927 3.90132 54.7299C3.14122 52.867 2.75 50.8704 2.75 48.8541C2.75 44.7819 4.34352 40.8765 7.18001 37.997C10.0165 35.1176 13.8636 33.4999 17.875 33.4999C21.8864 33.4999 25.7335 35.1176 28.57 37.997C31.4065 40.8765 33 44.7819 33 48.8541ZM27.0985 42.2825C26.9708 42.1525 26.819 42.0494 26.652 41.979C26.4849 41.9086 26.3059 41.8724 26.125 41.8724C25.9441 41.8724 25.7651 41.9086 25.598 41.979C25.431 42.0494 25.2792 42.1525 25.1515 42.2825L15.125 52.4637L10.5985 47.8658C10.3403 47.6037 9.99013 47.4565 9.625 47.4565C9.25987 47.4565 8.90969 47.6037 8.6515 47.8658C8.39331 48.1279 8.24826 48.4834 8.24826 48.8541C8.24826 49.2247 8.39331 49.5802 8.6515 49.8423L14.1515 55.4257C14.2792 55.5557 14.431 55.6588 14.598 55.7292C14.7651 55.7995 14.9441 55.8357 15.125 55.8357C15.3059 55.8357 15.4849 55.7995 15.652 55.7292C15.819 55.6588 15.9708 55.5557 16.0985 55.4257L27.0985 44.259C27.2265 44.1293 27.3281 43.9753 27.3975 43.8057C27.4668 43.6361 27.5025 43.4543 27.5025 43.2707C27.5025 43.0871 27.4668 42.9053 27.3975 42.7358C27.3281 42.5662 27.2265 42.4122 27.0985 42.2825Z" fill="white"/>
</svg>
