<svg width="65" height="67" viewBox="0 0 65 67" fill="none" xmlns="http://www.w3.org/2000/svg">
<path d="M32.4999 5.5835V22.3335C32.4999 23.8143 33.0706 25.2344 34.0864 26.2815C35.1022 27.3286 36.48 27.9168 37.9166 27.9168H54.1666V55.8335C54.1666 57.3143 53.5959 58.7344 52.5801 59.7815C51.5643 60.8286 50.1865 61.4168 48.7499 61.4168H16.2499C14.8133 61.4168 13.4356 60.8286 12.4198 59.7815C11.4039 58.7344 10.8333 57.3143 10.8333 55.8335V11.1668C10.8333 9.68604 11.4039 8.26589 12.4198 7.21882C13.4356 6.17174 14.8133 5.5835 16.2499 5.5835H32.4999Z" fill="white"/>
<path d="M36.5625 6.97949V22.3337C36.5625 22.7039 36.7052 23.0589 36.9591 23.3207C37.2131 23.5824 37.5575 23.7295 37.9167 23.7295H52.8125L36.5625 6.97949Z" fill="white"/>
</svg>
