<svg width="65" height="66" viewBox="0 0 65 66" fill="none" xmlns="http://www.w3.org/2000/svg">
<path d="M32.4999 5.5V22C32.4999 23.4587 33.0706 24.8576 34.0864 25.8891C35.1022 26.9205 36.48 27.5 37.9166 27.5H54.1666V55C54.1666 56.4587 53.5959 57.8576 52.5801 58.8891C51.5643 59.9205 50.1865 60.5 48.7499 60.5H30.3062C33.1093 57.5371 34.8217 53.6842 35.1552 49.5896C35.4886 45.495 34.4227 41.4088 32.1369 38.0187C29.851 34.6285 26.4848 32.1414 22.6048 30.9759C18.7247 29.8104 14.5676 30.0377 10.8333 31.6195V11C10.8333 9.54131 11.4039 8.14236 12.4198 7.11091C13.4356 6.07946 14.8133 5.5 16.2499 5.5H32.4999ZM36.5624 6.875V22C36.5624 22.3647 36.7051 22.7144 36.959 22.9723C37.213 23.2301 37.5574 23.375 37.9166 23.375H52.8124L36.5624 6.875ZM32.4999 48.125C32.4999 50.1112 32.1146 52.078 31.366 53.9131C30.6175 55.7481 29.5202 57.4155 28.137 58.82C26.7538 60.2245 25.1117 61.3386 23.3045 62.0987C21.4972 62.8588 19.5602 63.25 17.6041 63.25C15.6479 63.25 13.7109 62.8588 11.9037 62.0987C10.0965 61.3386 8.45435 60.2245 7.07114 58.82C5.68793 57.4155 4.59072 55.7481 3.84213 53.9131C3.09354 52.078 2.70825 50.1112 2.70825 48.125C2.70825 44.1136 4.27763 40.2665 7.07114 37.43C9.86465 34.5935 13.6535 33 17.6041 33C21.5547 33 25.3435 34.5935 28.137 37.43C30.9305 40.2665 32.4999 44.1136 32.4999 48.125ZM26.6878 41.6515C26.562 41.5234 26.4126 41.4219 26.2481 41.3525C26.0836 41.2832 25.9072 41.2475 25.7291 41.2475C25.551 41.2475 25.3746 41.2832 25.2101 41.3525C25.0456 41.4219 24.8961 41.5234 24.7703 41.6515L14.8958 51.6807L10.4378 47.1515C10.1836 46.8933 9.83869 46.7483 9.47908 46.7483C9.11948 46.7483 8.77461 46.8933 8.52033 47.1515C8.26606 47.4097 8.12321 47.7599 8.12321 48.125C8.12321 48.4901 8.26606 48.8403 8.52033 49.0985L13.937 54.5985C14.0628 54.7265 14.2122 54.8281 14.3767 54.8975C14.5413 54.9668 14.7176 55.0025 14.8958 55.0025C15.0739 55.0025 15.2502 54.9668 15.4148 54.8975C15.5793 54.8281 15.7287 54.7265 15.8545 54.5985L26.6878 43.5985C26.8139 43.4708 26.914 43.319 26.9823 43.152C27.0505 42.9849 27.0857 42.8059 27.0857 42.625C27.0857 42.4441 27.0505 42.2651 26.9823 42.098C26.914 41.931 26.8139 41.7792 26.6878 41.6515Z" fill="white"/>
</svg>
