<svg width="66" height="64" viewBox="0 0 66 64" fill="none" xmlns="http://www.w3.org/2000/svg">
<g clip-path="url(#clip0_103_366)">
<path fill-rule="evenodd" clip-rule="evenodd" d="M65.3977 20.5837C65.5897 20.7695 65.7421 20.9902 65.8461 21.2331C65.9501 21.4761 66.0036 21.7366 66.0036 21.9997C66.0036 22.2627 65.9501 22.5232 65.8461 22.7662C65.7421 23.0092 65.5897 23.2299 65.3977 23.4157L53.0227 35.4157C52.8311 35.6019 52.6035 35.7497 52.3529 35.8505C52.1023 35.9513 51.8337 36.0032 51.5624 36.0032C51.2911 36.0032 51.0225 35.9513 50.7719 35.8505C50.5214 35.7497 50.2938 35.6019 50.1022 35.4157L43.9147 29.4157C43.5274 29.0401 43.3098 28.5308 43.3098 27.9997C43.3098 27.4686 43.5274 26.9592 43.9147 26.5837C44.302 26.2081 44.8272 25.9971 45.3749 25.9971C45.9226 25.9971 46.4479 26.2081 46.8352 26.5837L51.5624 31.1717L62.4772 20.5837C62.6688 20.3974 62.8964 20.2496 63.1469 20.1488C63.3975 20.048 63.6661 19.9961 63.9374 19.9961C64.2087 19.9961 64.4773 20.048 64.7279 20.1488C64.9785 20.2496 65.2061 20.3974 65.3977 20.5837Z" fill="white"/>
<path d="M4.125 56C4.125 56 0 56 0 52C0 48 4.125 36 24.75 36C45.375 36 49.5 48 49.5 52C49.5 56 45.375 56 45.375 56H4.125ZM24.75 32C28.0321 32 31.1797 30.7357 33.5004 28.4853C35.8212 26.2348 37.125 23.1826 37.125 20C37.125 16.8174 35.8212 13.7652 33.5004 11.5147C31.1797 9.26428 28.0321 8 24.75 8C21.4679 8 18.3203 9.26428 15.9996 11.5147C13.6788 13.7652 12.375 16.8174 12.375 20C12.375 23.1826 13.6788 26.2348 15.9996 28.4853C18.3203 30.7357 21.4679 32 24.75 32Z" fill="white"/>
</g>
<defs>
<clipPath id="clip0_103_366">
<rect width="66" height="64" fill="white"/>
</clipPath>
</defs>
</svg>
