<svg width="72" height="57" viewBox="0 0 72 57" fill="none" xmlns="http://www.w3.org/2000/svg">
<path d="M69.8962 26.4182L63.315 19.9055C61.965 18.5695 60.1312 17.8236 58.2188 17.8236H54V7.125C54 5.15449 52.3912 3.5625 50.4 3.5625H3.6C1.60875 3.5625 0 5.15449 0 7.125V44.5312C0 49.452 4.0275 53.4375 9 53.4375C11.9587 53.4375 14.5575 52.0014 16.2 49.8305C17.8425 52.0125 20.4412 53.4375 23.4 53.4375C28.3725 53.4375 32.4 49.452 32.4 44.5312C32.4 43.9189 32.3325 43.3289 32.22 42.75H50.58C50.4562 43.3289 50.4 43.9189 50.4 44.5312C50.4 49.452 54.4275 53.4375 59.4 53.4375C64.3725 53.4375 68.4 49.452 68.4 44.5312C68.4 43.9189 68.3325 43.3289 68.22 42.75H70.2C71.19 42.75 72 41.9484 72 40.9688V31.4502C72 29.5576 71.2462 27.7541 69.8962 26.4182ZM9 48.0938C7.02 48.0938 5.4 46.4906 5.4 44.5312C5.4 42.5719 7.02 40.9688 9 40.9688C10.98 40.9688 12.6 42.5719 12.6 44.5312C12.6 46.4906 10.98 48.0938 9 48.0938ZM23.4 48.0938C21.42 48.0938 19.8 46.4906 19.8 44.5312C19.8 42.5719 21.42 40.9688 23.4 40.9688C25.38 40.9688 27 42.5719 27 44.5312C27 46.4906 25.38 48.0938 23.4 48.0938ZM54 23.1562H58.2188C58.7025 23.1562 59.1525 23.3455 59.49 23.6795L64.3612 28.5H54V23.1562ZM59.4 48.0938C57.42 48.0938 55.8 46.4906 55.8 44.5312C55.8 42.5719 57.42 40.9688 59.4 40.9688C61.38 40.9688 63 42.5719 63 44.5312C63 46.4906 61.38 48.0938 59.4 48.0938Z" fill="white"/>
</svg>
