<svg width="16" height="16" viewBox="0 0 16 16" fill="none" xmlns="http://www.w3.org/2000/svg">
<path fill-rule="evenodd" clip-rule="evenodd" d="M7.99984 0.666504C3.94984 0.666504 0.666504 3.94984 0.666504 7.99984C0.666504 12.0498 3.94984 15.3332 7.99984 15.3332C12.0498 15.3332 15.3332 12.0498 15.3332 7.99984C15.3332 3.94984 12.0498 0.666504 7.99984 0.666504ZM8.6665 10.6665C8.6665 10.8433 8.59627 11.0129 8.47124 11.1379C8.34622 11.2629 8.17665 11.3332 7.99984 11.3332C7.82303 11.3332 7.65346 11.2629 7.52843 11.1379C7.40341 11.0129 7.33317 10.8433 7.33317 10.6665V8.6665H5.33317C5.15636 8.6665 4.98679 8.59627 4.86177 8.47124C4.73674 8.34622 4.6665 8.17665 4.6665 7.99984C4.6665 7.82303 4.73674 7.65346 4.86177 7.52843C4.98679 7.40341 5.15636 7.33317 5.33317 7.33317H7.33317V5.33317C7.33317 5.15636 7.40341 4.98679 7.52843 4.86177C7.65346 4.73674 7.82303 4.6665 7.99984 4.6665C8.17665 4.6665 8.34622 4.73674 8.47124 4.86177C8.59627 4.98679 8.6665 5.15636 8.6665 5.33317V7.33317H10.6665C10.8433 7.33317 11.0129 7.40341 11.1379 7.52843C11.2629 7.65346 11.3332 7.82303 11.3332 7.99984C11.3332 8.17665 11.2629 8.34622 11.1379 8.47124C11.0129 8.59627 10.8433 8.6665 10.6665 8.6665H8.6665V10.6665Z" fill="white"/>
</svg>
