<svg width="40" height="40" viewBox="0 0 40 40" fill="none" xmlns="http://www.w3.org/2000/svg">
<path d="M35.5556 40H4.44444C3.2657 40 2.13524 39.5786 1.30175 38.8284C0.468252 38.0783 0 37.0609 0 36V8C0 6.93913 0.468252 5.92172 1.30175 5.17157C2.13524 4.42143 3.2657 4 4.44444 4H8.88889V0H13.3333V4H26.6667V0H31.1111V4H35.5556C36.7343 4 37.8648 4.42143 38.6983 5.17157C39.5317 5.92172 40 6.93913 40 8V36C40 37.0609 39.5317 38.0783 38.6983 38.8284C37.8648 39.5786 36.7343 40 35.5556 40ZM4.44444 16V36H35.5556V16H4.44444ZM4.44444 8V12H35.5556V8H4.44444ZM31.1111 32H26.6667V28H31.1111V32ZM22.2222 32H17.7778V28H22.2222V32ZM13.3333 32H8.88889V28H13.3333V32ZM31.1111 24H26.6667V20H31.1111V24ZM22.2222 24H17.7778V20H22.2222V24ZM13.3333 24H8.88889V20H13.3333V24Z" fill="#01BFC4"/>
</svg>
