<svg width="17" height="11" viewBox="0 0 17 11" fill="none" xmlns="http://www.w3.org/2000/svg">
<path d="M7.19615 10.3361L0.601646 2.7983C-0.176603 1.91143 0.455896 0.518555 1.63702 0.518555H14.826C15.0904 0.518329 15.3492 0.5943 15.5714 0.737373C15.7937 0.880446 15.97 1.08456 16.0793 1.32526C16.1885 1.56596 16.2261 1.83305 16.1874 2.09455C16.1488 2.35604 16.0356 2.60086 15.8614 2.79968L9.2669 10.3347C9.13784 10.4824 8.97867 10.6007 8.8001 10.6818C8.62152 10.7629 8.42765 10.8049 8.23152 10.8049C8.03539 10.8049 7.84152 10.7629 7.66295 10.6818C7.48437 10.6007 7.3252 10.4824 7.19615 10.3347V10.3361Z" fill="#01BFC4"/>
</svg>
