<svg width="74" height="75" viewBox="0 0 74 75" fill="none" xmlns="http://www.w3.org/2000/svg">
<path d="M36.9999 29.8534L48.2109 25.3122L20.4609 14.0622L10.8927 17.9397C10.4097 18.1356 9.95632 18.3994 9.54591 18.7234L36.9999 29.8497V29.8534ZM7.52941 21.9484C7.44283 22.3475 7.39941 22.7549 7.39991 23.1634V51.8359C7.39972 52.9604 7.73204 54.059 8.35397 54.9902C8.9759 55.9213 9.8589 56.6422 10.889 57.0597L32.1899 65.6922C33.1519 66.0822 34.1435 66.3522 35.1499 66.4984V33.1422L7.52941 21.9484ZM38.8499 66.4984C39.8563 66.3484 40.8479 66.0859 41.8099 65.6922L63.1108 57.0559C64.1397 56.6389 65.0219 55.9192 65.6438 54.9895C66.2656 54.0599 66.5986 52.9628 66.5999 51.8397V23.1634C66.5999 22.7509 66.5555 22.3384 66.4704 21.9484L38.8499 33.1422V66.4984ZM64.4576 18.7234L53.1874 23.2909L25.4374 12.0409L32.1899 9.30344C35.2776 8.05152 38.7222 8.05152 41.8099 9.30344L63.1108 17.9397C63.5938 18.1357 64.0471 18.3995 64.4576 18.7234Z" fill="white"/>
</svg>
