<svg width="26" height="26" viewBox="0 0 26 26" fill="none" xmlns="http://www.w3.org/2000/svg">
<path d="M13 26C12.7845 26 12.5778 25.9144 12.4254 25.762C12.2731 25.6097 12.1875 25.403 12.1875 25.1875V23.0864L11.1377 24.1378C10.9851 24.2901 10.7783 24.3756 10.5627 24.3755C10.3471 24.3753 10.1404 24.2895 9.98802 24.1369C9.83567 23.9844 9.75017 23.7775 9.75032 23.5619C9.75047 23.3463 9.83627 23.1396 9.98884 22.9872L12.1875 20.7886V14.4073L6.66246 17.5971L5.85646 20.6034C5.80043 20.8115 5.66401 20.9889 5.4772 21.0965C5.29039 21.2041 5.0685 21.233 4.86034 21.177C4.65217 21.121 4.47479 20.9845 4.36722 20.7977C4.25964 20.6109 4.23068 20.389 4.28671 20.1809L4.67184 18.7476L2.85184 19.7974C2.66532 19.9034 2.44443 19.9314 2.23737 19.8752C2.03031 19.819 1.85389 19.6831 1.74661 19.4973C1.63933 19.3115 1.6099 19.0908 1.66474 18.8834C1.71958 18.676 1.85424 18.4986 2.03934 18.3901L3.85934 17.3404L2.42284 16.9552C2.31976 16.9275 2.22317 16.8797 2.13856 16.8147C2.05395 16.7496 1.98298 16.6685 1.92972 16.576C1.87645 16.4835 1.84193 16.3814 1.82811 16.2756C1.8143 16.1697 1.82147 16.0622 1.84921 15.9591C1.87695 15.8561 1.92472 15.7595 1.9898 15.6748C2.05487 15.5902 2.13597 15.5193 2.22847 15.466C2.32097 15.4127 2.42305 15.3782 2.5289 15.3644C2.63474 15.3506 2.74226 15.3578 2.84534 15.3855L5.84834 16.1899L11.375 13L5.84996 9.81013L2.84371 10.6145C2.6369 10.666 2.41812 10.6343 2.23453 10.526C2.05094 10.4177 1.91723 10.2417 1.86224 10.0358C1.80724 9.82985 1.83536 9.61057 1.94053 9.4252C2.04569 9.23982 2.21949 9.10318 2.42446 9.04475L3.85934 8.65963L2.03934 7.60988C1.94619 7.55691 1.86443 7.48605 1.79878 7.40137C1.73313 7.31668 1.68488 7.21985 1.6568 7.11644C1.62873 7.01303 1.62138 6.90509 1.6352 6.79883C1.64901 6.69257 1.6837 6.59009 1.73728 6.4973C1.79086 6.4045 1.86226 6.32322 1.94738 6.25813C2.0325 6.19304 2.12965 6.14543 2.23324 6.11804C2.33683 6.09066 2.44482 6.08403 2.55099 6.09855C2.65715 6.11306 2.7594 6.14843 2.85184 6.20262L4.67184 7.25237L4.28671 5.8175C4.25714 5.71379 4.24852 5.60523 4.26134 5.49815C4.27416 5.39107 4.30817 5.28762 4.36138 5.19382C4.4146 5.10002 4.48595 5.01775 4.57129 4.95181C4.65662 4.88587 4.75423 4.83758 4.85842 4.80975C4.96261 4.78193 5.0713 4.77512 5.17815 4.78973C5.285 4.80434 5.38787 4.84008 5.48077 4.89485C5.57366 4.94963 5.65473 5.02235 5.71923 5.10878C5.78373 5.1952 5.83038 5.29361 5.85646 5.39825L6.66084 8.40287L12.1875 11.5927V5.21138L9.98884 3.01275C9.91329 2.93731 9.85335 2.84774 9.81242 2.74913C9.7715 2.65053 9.7504 2.54483 9.75032 2.43807C9.75025 2.33132 9.7712 2.22559 9.81198 2.12693C9.85277 2.02827 9.91259 1.93861 9.98802 1.86306C10.0635 1.78752 10.153 1.72757 10.2516 1.68665C10.3502 1.64573 10.4559 1.62462 10.5627 1.62455C10.6695 1.62447 10.7752 1.64543 10.8738 1.68621C10.9725 1.727 11.0622 1.78681 11.1377 1.86225L12.1875 2.91363V0.8125C12.1875 0.597012 12.2731 0.390349 12.4254 0.237976C12.5778 0.0856024 12.7845 0 13 0C13.2154 0 13.4221 0.0856024 13.5745 0.237976C13.7269 0.390349 13.8125 0.597012 13.8125 0.8125V2.91363L14.8638 1.86225C15.0164 1.7099 15.2232 1.6244 15.4388 1.62455C15.6545 1.6247 15.8612 1.7105 16.0135 1.86306C16.1659 2.01563 16.2514 2.22247 16.2512 2.43807C16.2511 2.65368 16.1653 2.8604 16.0127 3.01275L13.8125 5.21138V11.5927L19.3375 8.40287L20.1435 5.39663C20.1995 5.18846 20.3359 5.01108 20.5227 4.90351C20.7095 4.79593 20.9314 4.76697 21.1396 4.823C21.3477 4.87903 21.5251 5.01545 21.6327 5.20226C21.7403 5.38907 21.7692 5.61096 21.7132 5.81913L21.3297 7.25237L23.1497 6.20262C23.3362 6.09658 23.5571 6.06861 23.7642 6.12483C23.9712 6.18104 24.1477 6.31688 24.2549 6.50269C24.3622 6.68849 24.3916 6.90919 24.3368 7.11662C24.282 7.32405 24.1473 7.50137 23.9622 7.60988L22.1422 8.65963L23.5771 9.04475C23.7852 9.10078 23.9626 9.2372 24.0702 9.42401C24.1778 9.61082 24.2067 9.83271 24.1507 10.0409C24.0947 10.249 23.9583 10.4264 23.7715 10.534C23.5846 10.6416 23.3627 10.6705 23.1546 10.6145L20.1516 9.81013L14.625 13L20.15 16.1899L23.1546 15.3855C23.3627 15.3297 23.5846 15.3589 23.7712 15.4666C23.9579 15.5743 24.0941 15.7518 24.1499 15.9599C24.2057 16.1681 24.1765 16.3899 24.0688 16.5766C23.9611 16.7632 23.7836 16.8994 23.5755 16.9552L22.1406 17.3404L23.9606 18.3901C24.1457 18.4986 24.2803 18.676 24.3352 18.8834C24.39 19.0908 24.3606 19.3115 24.2533 19.4973C24.146 19.6831 23.9696 19.819 23.7626 19.8752C23.5555 19.9314 23.3346 19.9034 23.1481 19.7974L21.3281 18.7476L21.7116 20.1825C21.7412 20.2862 21.7498 20.3948 21.737 20.5018C21.7241 20.6089 21.6901 20.7124 21.6369 20.8062C21.5837 20.9 21.5123 20.9822 21.427 21.0482C21.3417 21.1141 21.2441 21.1624 21.1399 21.1902C21.0357 21.2181 20.927 21.2249 20.8201 21.2103C20.7133 21.1957 20.6104 21.1599 20.5175 21.1051C20.4246 21.0504 20.3436 20.9776 20.2791 20.8912C20.2146 20.8048 20.1679 20.7064 20.1418 20.6018L19.3375 17.5971L13.8125 14.4073V20.7886L16.0111 22.9872C16.1637 23.1396 16.2494 23.3463 16.2496 23.5619C16.2498 23.7775 16.1642 23.9844 16.0119 24.1369C15.8595 24.2895 15.6528 24.3753 15.4372 24.3755C15.2216 24.3756 15.0148 24.2901 14.8622 24.1378L13.8108 23.0864V25.1875C13.8108 25.403 13.7252 25.6097 13.5729 25.762C13.4205 25.9144 13.2138 26 12.9983 26H13Z" fill="#038CB8"/>
</svg>
