<svg width="24" height="24" viewBox="0 0 24 24" fill="none" xmlns="http://www.w3.org/2000/svg">
<path d="M11.78 2.945C13.3997 2.945 14.725 4.27025 14.725 5.89C14.725 7.50975 13.3997 8.835 11.78 8.835C10.1602 8.835 8.835 7.50975 8.835 5.89C8.835 4.27025 10.1602 2.945 11.78 2.945ZM11.78 16.1975C15.7557 16.1975 20.3205 18.097 20.615 19.1425V20.615H2.945V19.1572C3.2395 18.097 7.80425 16.1975 11.78 16.1975ZM11.78 0C8.52577 0 5.89 2.63577 5.89 5.89C5.89 9.14422 8.52577 11.78 11.78 11.78C15.0342 11.78 17.67 9.14422 17.67 5.89C17.67 2.63577 15.0342 0 11.78 0ZM11.78 13.2525C7.84842 13.2525 0 15.2256 0 19.1425V23.56H23.56V19.1425C23.56 15.2256 15.7116 13.2525 11.78 13.2525Z" fill="#01BFC4"/>
</svg>
