<svg width="19" height="16" viewBox="0 0 19 16" fill="none" xmlns="http://www.w3.org/2000/svg">
<path d="M0.269531 3.125C0.269531 2.44792 0.510417 1.85547 0.992188 1.34766C1.48047 0.839844 2.06966 0.585938 2.75977 0.585938C3.43685 0.585938 4.01302 0.839844 4.48828 1.34766C4.97005 1.84896 5.21094 2.44141 5.21094 3.125C5.21094 3.8151 4.97005 4.4043 4.48828 4.89258C4.01302 5.38086 3.43685 5.625 2.75977 5.625C2.07617 5.625 1.49023 5.38086 1.00195 4.89258C0.513672 4.4043 0.269531 3.8151 0.269531 3.125ZM2.75977 4.375C3.11133 4.375 3.40755 4.26107 3.64844 4.0332C3.88932 3.79883 4.00977 3.49609 4.00977 3.125C4.00977 2.7474 3.88932 2.43815 3.64844 2.19727C3.40755 1.94987 3.11133 1.82617 2.75977 1.82617C2.40169 1.82617 2.09896 1.95638 1.85156 2.2168C1.61068 2.4707 1.49023 2.77344 1.49023 3.125C1.49023 3.47656 1.61068 3.77279 1.85156 4.01367C2.09896 4.25456 2.40169 4.375 2.75977 4.375ZM18.5898 10.4883C18.4141 11.9922 17.8574 13.1543 16.9199 13.9746C15.9889 14.7884 14.7487 15.1953 13.1992 15.1953C11.5195 15.1953 10.1719 14.5931 9.15625 13.3887C8.14714 12.1842 7.64258 10.5729 7.64258 8.55469V7.1875C7.64258 5.86589 7.87695 4.70378 8.3457 3.70117C8.82096 2.69857 9.49154 1.93034 10.3574 1.39648C11.2233 0.85612 12.2259 0.585938 13.3652 0.585938C14.8757 0.585938 16.0866 1.00911 16.998 1.85547C17.9095 2.69531 18.4401 3.86068 18.5898 5.35156H16.7051C16.5423 4.21875 16.1875 3.39844 15.6406 2.89062C15.1003 2.38281 14.3418 2.12891 13.3652 2.12891C12.1673 2.12891 11.2266 2.57161 10.543 3.45703C9.86589 4.34245 9.52734 5.60221 9.52734 7.23633V8.61328C9.52734 10.1562 9.84961 11.3835 10.4941 12.2949C11.1387 13.2064 12.0404 13.6621 13.1992 13.6621C14.2409 13.6621 15.0384 13.4277 15.5918 12.959C16.1517 12.4837 16.5228 11.6602 16.7051 10.4883H18.5898Z" fill="#545454"/>
</svg>
