<svg width="16" height="11" viewBox="0 0 16 11" fill="none" xmlns="http://www.w3.org/2000/svg">
<path d="M6.9647 10.3175L0.370201 2.77975C-0.408049 1.89288 0.224451 0.500001 1.40558 0.500001H14.5946C14.8589 0.499774 15.1177 0.575746 15.34 0.718819C15.5622 0.861892 15.7386 1.066 15.8478 1.3067C15.9571 1.54741 15.9946 1.8145 15.956 2.07599C15.9173 2.33749 15.8041 2.58231 15.63 2.78113L9.03545 10.3161C8.90639 10.4638 8.74723 10.5822 8.56865 10.6633C8.39007 10.7444 8.19621 10.7863 8.00008 10.7863C7.80394 10.7863 7.61008 10.7444 7.4315 10.6633C7.25292 10.5822 7.09376 10.4638 6.9647 10.3161V10.3175Z" fill="#C4C4C4"/>
</svg>
