<svg width="20" height="20" viewBox="0 0 20 20" fill="none" xmlns="http://www.w3.org/2000/svg">
<path d="M0 2C0 0.895431 0.895431 0 2 0H18C19.1046 0 20 0.895431 20 2V18C20 19.1046 19.1046 20 18 20H2C0.895431 20 0 19.1046 0 18V2Z" fill="white"/>
<path d="M14.2901 5.28712C14.4802 5.10104 14.7332 4.99817 14.9956 5.00021C15.2581 5.00225 15.5095 5.10905 15.6968 5.29807C15.8841 5.48708 15.9927 5.74353 15.9996 6.0133C16.0066 6.28307 15.9113 6.54506 15.734 6.74399L10.3499 13.6676C10.2573 13.7701 10.1456 13.8524 10.0214 13.9095C9.89718 13.9666 9.76304 13.9974 9.62699 14C9.49095 14.0026 9.35579 13.9769 9.22961 13.9246C9.10342 13.8723 8.9888 13.7943 8.89259 13.6953L5.32211 10.024C5.22268 9.92876 5.14293 9.81388 5.08761 9.68623C5.0323 9.55858 5.00256 9.42078 5.00016 9.28106C4.99776 9.14133 5.02276 9.00254 5.07366 8.87297C5.12456 8.74339 5.20032 8.62569 5.29642 8.52687C5.39252 8.42805 5.507 8.35015 5.63301 8.29782C5.75903 8.24548 5.89401 8.21977 6.02989 8.22224C6.16578 8.22471 6.29979 8.25529 6.42394 8.31217C6.54808 8.36904 6.65981 8.45105 6.75246 8.55329L9.57808 11.4573L14.2645 5.31765C14.2729 5.30696 14.2819 5.29677 14.2915 5.28712H14.2901Z" fill="#038CB8"/>
</svg>
