<svg width="11" height="9" viewBox="0 0 11 9" fill="none" xmlns="http://www.w3.org/2000/svg">
<path d="M9.29013 0.287182C9.48022 0.101104 9.73317 -0.0017679 9.99562 0.000273965C10.2581 0.00231583 10.5095 0.109112 10.6968 0.298127C10.8841 0.487141 10.9927 0.743591 10.9996 1.01336C11.0066 1.28313 10.9113 1.54512 10.734 1.74405L5.34993 8.66765C5.25735 8.77019 5.14561 8.85247 5.02139 8.90959C4.89718 8.9667 4.76304 8.99747 4.62699 9.00007C4.49095 9.00266 4.35579 8.97701 4.22961 8.92466C4.10342 8.87232 3.9888 8.79434 3.89259 8.6954L0.32211 5.02409C0.222678 4.92882 0.142926 4.81394 0.0876123 4.68629C0.0322983 4.55864 0.00255507 4.42084 0.0001575 4.28112C-0.00224007 4.14139 0.0227572 4.0026 0.0736574 3.87303C0.124558 3.74345 0.200318 3.62575 0.29642 3.52693C0.392522 3.42811 0.506995 3.35021 0.633012 3.29788C0.759029 3.24554 0.894007 3.21984 1.02989 3.2223C1.16578 3.22477 1.29979 3.25535 1.42394 3.31223C1.54808 3.3691 1.65981 3.45111 1.75246 3.55335L4.57808 6.45737L9.2645 0.317708C9.27293 0.307025 9.28194 0.296834 9.29148 0.287182H9.29013Z" fill="white"/>
</svg>
