<svg width="13" height="16" viewBox="0 0 13 16" fill="none" xmlns="http://www.w3.org/2000/svg">
<path d="M0.201172 3.51562C0.201172 2.66276 0.471354 1.95964 1.01172 1.40625C1.55859 0.852865 2.25846 0.576172 3.11133 0.576172C3.97721 0.576172 4.67708 0.85612 5.21094 1.41602C5.7513 1.9694 6.02148 2.6888 6.02148 3.57422V4.26758C6.02148 5.12695 5.74805 5.83008 5.20117 6.37695C4.66081 6.91732 3.9707 7.1875 3.13086 7.1875C2.28451 7.1875 1.58464 6.91732 1.03125 6.37695C0.477865 5.83008 0.201172 5.10417 0.201172 4.19922V3.51562ZM1.54883 4.26758C1.54883 4.77539 1.69206 5.19531 1.97852 5.52734C2.26497 5.85286 2.64909 6.01562 3.13086 6.01562C3.5931 6.01562 3.96419 5.85612 4.24414 5.53711C4.5306 5.2181 4.67383 4.7819 4.67383 4.22852V3.51562C4.67383 3.00781 4.53385 2.58789 4.25391 2.25586C3.97396 1.92383 3.5931 1.75781 3.11133 1.75781C2.62956 1.75781 2.2487 1.92383 1.96875 2.25586C1.6888 2.58789 1.54883 3.02083 1.54883 3.55469V4.26758ZM7.125 11.5137C7.125 10.6608 7.39518 9.96094 7.93555 9.41406C8.48242 8.86068 9.18229 8.58398 10.0352 8.58398C10.888 8.58398 11.5879 8.85742 12.1348 9.4043C12.6816 9.95117 12.9551 10.6771 12.9551 11.582V12.2754C12.9551 13.1283 12.6816 13.8314 12.1348 14.3848C11.5944 14.9316 10.901 15.2051 10.0547 15.2051C9.20833 15.2051 8.50846 14.9349 7.95508 14.3945C7.40169 13.8477 7.125 13.1217 7.125 12.2168V11.5137ZM8.47266 12.2754C8.47266 12.7897 8.61589 13.2129 8.90234 13.5449C9.1888 13.8704 9.57292 14.0332 10.0547 14.0332C10.5234 14.0332 10.8978 13.8737 11.1777 13.5547C11.4577 13.2292 11.5977 12.7897 11.5977 12.2363V11.5137C11.5977 10.9993 11.4544 10.5794 11.168 10.2539C10.888 9.92839 10.5104 9.76562 10.0352 9.76562C9.57292 9.76562 9.19531 9.92839 8.90234 10.2539C8.61589 10.5729 8.47266 11.0059 8.47266 11.5527V12.2754ZM3.54102 13.9258L2.51562 13.2812L9.45898 2.16797L10.4844 2.8125L3.54102 13.9258Z" fill="#4F4F4F"/>
</svg>
