<svg width="46" height="17" viewBox="0 0 46 17" fill="none" xmlns="http://www.w3.org/2000/svg">
<path d="M7.47461 9.42383H0.199219V7.89062H7.47461C8.18424 7.89062 8.76693 7.77669 9.22266 7.54883C9.67839 7.32096 10.0137 6.9987 10.2285 6.58203C10.4499 6.16536 10.5605 5.67383 10.5605 5.10742C10.5605 4.64518 10.4564 4.20247 10.248 3.7793C10.0462 3.35612 9.71745 3.00781 9.26172 2.73438C8.8125 2.46094 8.2168 2.32422 7.47461 2.32422H4.0957V15H2.2207V0.78125H7.47461C8.54883 0.78125 9.45378 0.966797 10.1895 1.33789C10.9251 1.70247 11.4818 2.21029 11.8594 2.86133C12.2435 3.50586 12.4355 4.24805 12.4355 5.08789C12.4355 5.99935 12.2435 6.7806 11.8594 7.43164C11.4818 8.07617 10.9251 8.57096 10.1895 8.91602C9.45378 9.25456 8.54883 9.42383 7.47461 9.42383ZM7.35742 10.7617V12.3047H0.199219V10.7617H7.35742ZM20.8438 0.78125L14.916 16.2207H13.3633L19.3008 0.78125H20.8438ZM24.7793 4.43359V15H22.9727V4.43359H24.7793ZM31.7129 4.43359L26.7031 10.4883H24.1738L23.9004 8.90625H25.9707L29.5156 4.43359H31.7129ZM29.7695 15L25.8828 10.2148L27.0449 8.90625L32.0645 15H29.7695ZM39.7109 12.5977L43.3047 4.43359H45.043L40.3359 15H39.0859L34.3984 4.43359H36.1367L39.7109 12.5977ZM35.6094 4.43359V15H33.8027V4.43359H35.6094ZM43.7539 15V4.43359H45.5703V15H43.7539Z" fill="#4F4F4F"/>
</svg>
