<svg width="13" height="15" viewBox="0 0 13 15" fill="none" xmlns="http://www.w3.org/2000/svg">
<path d="M7.4375 9.42383H0.162109V7.89062H7.4375C8.14714 7.89062 8.72982 7.77669 9.18555 7.54883C9.64128 7.32096 9.97656 6.9987 10.1914 6.58203C10.4128 6.16536 10.5234 5.67383 10.5234 5.10742C10.5234 4.64518 10.4193 4.20247 10.2109 3.7793C10.0091 3.35612 9.68034 3.00781 9.22461 2.73438C8.77539 2.46094 8.17969 2.32422 7.4375 2.32422H4.05859V15H2.18359V0.78125H7.4375C8.51172 0.78125 9.41667 0.966797 10.1523 1.33789C10.888 1.70247 11.4447 2.21029 11.8223 2.86133C12.2064 3.50586 12.3984 4.24805 12.3984 5.08789C12.3984 5.99935 12.2064 6.7806 11.8223 7.43164C11.4447 8.07617 10.888 8.57096 10.1523 8.91602C9.41667 9.25456 8.51172 9.42383 7.4375 9.42383ZM7.32031 10.7617V12.3047H0.162109V10.7617H7.32031Z" fill="#4F4F4F"/>
</svg>
