<svg width="21" height="15" viewBox="0 0 21 15" fill="none" xmlns="http://www.w3.org/2000/svg">
<path d="M6.45117 12.6074L10.0449 4.43359H12.3008V15H10.4941V7.31445L7.07617 15H5.82617L2.33984 7.14844V15H0.533203V4.43359H2.87695L6.45117 12.6074ZM16.4316 4.00391H17.252C17.7337 4.00391 18.0918 3.90625 18.3262 3.71094C18.5605 3.50911 18.6777 3.25195 18.6777 2.93945C18.6777 2.64648 18.5736 2.4056 18.3652 2.2168C18.1634 2.02799 17.8346 1.93359 17.3789 1.93359C17.0078 1.93359 16.6986 2.01823 16.4512 2.1875C16.2103 2.35026 16.0898 2.5651 16.0898 2.83203H14.5566C14.5566 2.19401 14.8203 1.67643 15.3477 1.2793C15.8815 0.875651 16.5521 0.673828 17.3594 0.673828C18.2513 0.673828 18.9512 0.872396 19.459 1.26953C19.9668 1.66016 20.2207 2.19401 20.2207 2.87109C20.2207 3.22917 20.1068 3.55794 19.8789 3.85742C19.651 4.15039 19.3223 4.37826 18.8926 4.54102C19.8626 4.80794 20.3477 5.4069 20.3477 6.33789C20.3477 7.02799 20.071 7.57812 19.5176 7.98828C18.9642 8.39193 18.2448 8.59375 17.3594 8.59375C16.5 8.59375 15.8001 8.38867 15.2598 7.97852C14.7194 7.56836 14.4492 7.01497 14.4492 6.31836H15.9922C15.9922 6.61133 16.1191 6.85547 16.373 7.05078C16.6335 7.24609 16.9818 7.34375 17.418 7.34375C17.8737 7.34375 18.2188 7.24609 18.4531 7.05078C18.694 6.85547 18.8145 6.5918 18.8145 6.25977C18.8145 5.52409 18.3066 5.14974 17.291 5.13672H16.4316V4.00391Z" fill="#4F4F4F"/>
</svg>
